<svg width="22" height="23" viewBox="0 0 22 23" fill="none" xmlns="http://www.w3.org/2000/svg">
<circle cx="11" cy="11.5" r="10" stroke="#26962B" stroke-width="2"/>
<g clip-path="url(#clip0_1889_5112)">
<path d="M16.3229 6.59244C15.9253 6.20311 15.2863 6.21327 14.9013 6.61504L14.4147 7.12275L10.3305 11.207C9.94519 11.5923 9.32229 11.5982 8.92976 11.2202L8.24443 10.5603L7.71404 10.0299C7.32352 9.63934 6.69035 9.63934 6.29983 10.0299L5.2906 11.0391C4.90008 11.4296 4.90008 12.0628 5.2906 12.4533L5.821 12.9837L8.39912 15.5618L8.87828 16.0618C9.26616 16.4666 9.91096 16.4734 10.3074 16.077L10.8226 15.5618L16.8382 9.54619L17.3611 9.02328C17.7545 8.62985 17.7512 7.99093 17.3536 7.60166L16.3229 6.59244Z" fill="#26962B"/>
</g>
<defs>
<clipPath id="clip0_1889_5112">
<rect x="4.5835" y="4.1665" width="13.75" height="13.75" rx="2" fill="white"/>
</clipPath>
</defs>
</svg>
