<svg width="22" height="23" viewBox="0 0 22 23" fill="none" xmlns="http://www.w3.org/2000/svg">
<path d="M18.3497 3.95719C17.9521 3.56785 17.3132 3.57801 16.9281 3.97979L15.73 5.23L8.77889 12.1811C8.39357 12.5664 7.77067 12.5723 7.37814 12.1943L5.8575 10.73L4.58461 9.45711C4.19408 9.06658 3.56092 9.06658 3.17039 9.45711L0.707107 11.9204C0.316583 12.3109 0.316583 12.9441 0.707107 13.3346L1.98 14.6075L6.105 18.7325L7.29572 19.975C7.68361 20.3797 8.3284 20.3866 8.72481 19.9902L9.9825 18.7325L19.6075 9.1075L20.8729 7.84209C21.2663 7.44866 21.263 6.80974 20.8654 6.42047L18.3497 3.95719Z" fill="#FFFEFB"/>
</svg>
