<svg width="22" height="23" viewBox="0 0 22 23" fill="none" xmlns="http://www.w3.org/2000/svg">
<g clip-path="url(#clip0_1834_5088)">
<path d="M13.75 0.5C12.2375 0.5 11 1.7375 11 3.25C11 4.7625 12.2375 6 13.75 6C15.2625 6 16.5 4.7625 16.5 3.25C16.5 1.7375 15.2625 0.5 13.75 0.5ZM9.625 7.375C7.68415 7.375 6.06144 8.7072 5.61914 10.5093C5.4875 11.0457 5.94772 11.5 6.5 11.5H7.25C7.80228 11.5 8.22636 10.9973 8.59238 10.5837C8.84264 10.3009 9.20984 10.125 9.625 10.125C10.395 10.125 11 10.73 11 11.5C11 12.27 8.25 16.01 8.25 18.375C8.25 20.74 10.0925 22.5 12.375 22.5C14.3159 22.5 15.9386 21.1678 16.3809 19.3657C16.5125 18.8293 16.0523 18.375 15.5 18.375H14.75C14.1977 18.375 13.7736 18.8777 13.4076 19.2913C13.1574 19.5741 12.7902 19.75 12.375 19.75C11.605 19.75 11 19.145 11 18.375C11 17.385 13.75 13.315 13.75 11.5C13.75 9.2725 11.9075 7.375 9.625 7.375Z" fill="#FFFEFB"/>
</g>
<defs>
<clipPath id="clip0_1834_5088">
<rect y="0.5" width="22" height="22" rx="2" fill="white"/>
</clipPath>
</defs>
</svg>
