<svg width="27" height="27" viewBox="0 0 27 27" fill="none" xmlns="http://www.w3.org/2000/svg">
<path d="M23.0782 4.78937C22.283 4.0107 21.0051 4.03103 20.235 4.83458L19.305 5.805L11.3103 13.7997C10.5396 14.5704 9.29384 14.5821 8.50878 13.8261L7.18875 12.555L6.17296 11.5392C5.39192 10.7582 4.12559 10.7582 3.34454 11.5392L1.41421 13.4695C0.633165 14.2506 0.633165 15.5169 1.41421 16.298L2.43 17.3138L7.4925 22.3763L8.40768 23.3312C9.18346 24.1407 10.473 24.1545 11.2659 23.3616L12.2513 22.3763L24.0638 10.5638L25.0646 9.56293C25.8514 8.77606 25.8447 7.49824 25.0496 6.71969L23.0782 4.78937Z" fill="#29C12F"/>
</svg>
