<svg width="18" height="26" viewBox="0 0 18 26" fill="" xmlns="http://www.w3.org/2000/svg">
<path d="M1.14125 0C0.77 0 0.5 0.26 0.5 0.6175V25.415C0.5 25.7725 0.77 26.0325 1.14125 26.0325H16.7675C17.1388 26.0325 17.4088 25.7725 17.4088 25.415V0.6175C17.4088 0.26 17.1388 0 16.7675 0L1.14125 0ZM3.875 3.25H14V19.5H3.875V3.25ZM8.9375 21.125C9.8825 21.125 10.625 21.84 10.625 22.75C10.625 23.66 9.8825 24.375 8.9375 24.375C7.9925 24.375 7.25 23.66 7.25 22.75C7.25 21.84 7.9925 21.125 8.9375 21.125Z"/>
</svg>
