<svg width="22" height="23" viewBox="0 0 22 23" fill="none" xmlns="http://www.w3.org/2000/svg">
<g clip-path="url(#clip0_1889_5122)">
<path d="M10.3035 0.5C10.3152 0.5 10.3188 0.517173 10.3083 0.522099C10.225 0.560913 10.0614 0.646837 10.001 0.7475L1.916 19.475C1.861 19.6125 1.8335 19.8325 1.8335 19.9975V22.225C1.8335 22.3625 1.9435 22.4725 2.081 22.4725H20.8085C20.946 22.4725 21.056 22.3625 21.056 22.225V19.9975C21.056 19.86 21.0285 19.6125 20.9735 19.475L12.8885 0.7475C12.8335 0.61 12.696 0.5 12.531 0.5C12.531 0.5 9.4336 0.5 10.3035 0.5ZM10.111 10.125C10.111 9.36561 10.7266 8.75 11.486 8.75C12.2454 8.75 12.861 9.36561 12.861 10.125V12.875C12.861 13.6344 12.2454 14.25 11.486 14.25C10.7266 14.25 10.111 13.6344 10.111 12.875V10.125ZM10.111 18.375C10.111 17.6156 10.7266 17 11.486 17C12.2454 17 12.861 17.6156 12.861 18.375C12.861 19.1344 12.2454 19.75 11.486 19.75C10.7266 19.75 10.111 19.1344 10.111 18.375Z" fill="#CC9428"/>
</g>
<defs>
<clipPath id="clip0_1889_5122">
<rect y="0.5" width="22" height="22" rx="2" fill="white"/>
</clipPath>
</defs>
</svg>
