<svg width="31" height="24" viewBox="0 0 31 24" fill="none" xmlns="http://www.w3.org/2000/svg">
<path d="M14.5186 0C14.5321 0 14.5356 0.0204148 14.5229 0.0249912C14.4066 0.067086 14.1839 0.158085 14.0964 0.264974C14.0937 0.268334 14.0913 0.271904 14.0892 0.275696L2.6999 20.7C2.6224 20.85 2.58365 21.09 2.58365 21.27V23.7C2.58365 23.85 2.73865 23.97 2.9324 23.97H29.3211C29.5149 23.97 29.6699 23.85 29.6699 23.7V21.27C29.6699 21.12 29.6311 20.85 29.5536 20.7L18.1611 0.27C18.0836 0.12 17.8899 0 17.6574 0C17.6574 0 13.2929 0 14.5186 0ZM14.2474 10.9375C14.2474 9.86745 15.1148 9 16.1849 9C17.255 9 18.1224 9.86745 18.1224 10.9375V13.0625C18.1224 14.1326 17.255 15 16.1849 15C15.1148 15 14.2474 14.1326 14.2474 13.0625V10.9375ZM14.2474 19.5C14.2474 18.6716 14.919 18 15.7474 18H16.6224C17.4508 18 18.1224 18.6716 18.1224 19.5C18.1224 20.3284 17.4508 21 16.6224 21H15.7474C14.919 21 14.2474 20.3284 14.2474 19.5Z" fill="#C12945"/>
</svg>
