<svg width="18" height="19" viewBox="0 0 18 19" fill="none" xmlns="http://www.w3.org/2000/svg">
<path d="M9 0.5C4.0275 0.5 0 4.5275 0 9.5C0 14.4725 4.0275 18.5 9 18.5C13.9725 18.5 18 14.4725 18 9.5C18 4.5275 13.9725 0.5 9 0.5ZM4.91789 5.21211C5.30842 4.82158 5.94158 4.82158 6.33211 5.21211L8.29289 7.17289C8.68342 7.56342 9.31658 7.56342 9.70711 7.17289L11.6679 5.21211C12.0584 4.82158 12.6916 4.82158 13.0821 5.21211L13.2879 5.41789C13.6784 5.80842 13.6784 6.44158 13.2879 6.83211L11.3271 8.79289C10.9366 9.18342 10.9366 9.81658 11.3271 10.2071L13.2879 12.1679C13.6784 12.5584 13.6784 13.1916 13.2879 13.5821L13.0821 13.7879C12.6916 14.1784 12.0584 14.1784 11.6679 13.7879L9.70711 11.8271C9.31658 11.4366 8.68342 11.4366 8.29289 11.8271L6.33211 13.7879C5.94158 14.1784 5.30842 14.1784 4.91789 13.7879L4.71211 13.5821C4.32158 13.1916 4.32158 12.5584 4.71211 12.1679L6.67289 10.2071C7.06342 9.81658 7.06342 9.18342 6.67289 8.79289L4.71211 6.83211C4.32158 6.44158 4.32158 5.80842 4.71211 5.41789L4.91789 5.21211Z" fill="#585858"/>
</svg>
