<svg width="18" height="18" viewBox="0 0 18 18" fill="none" xmlns="http://www.w3.org/2000/svg">
<circle cx="9" cy="9" r="9" fill="#26962B"/>
<path d="M13.0697 6.85343C12.6721 6.4641 12.0331 6.47426 11.6481 6.87604L11.5565 6.97155L9.06387 9.46423C8.67854 9.84956 8.05564 9.85543 7.66312 9.47745L7.44151 9.26405L7.32332 9.14586C6.93279 8.75533 6.29963 8.75533 5.90911 9.14586L5.70711 9.34786C5.31658 9.73838 5.31658 10.3715 5.70711 10.7621L5.8253 10.8803L7.54468 12.5996L7.6288 12.6874C8.01669 13.0922 8.66149 13.099 9.0579 12.7026L9.16089 12.5996L13.1728 8.58776L13.2835 8.47705C13.6769 8.08362 13.6735 7.44471 13.276 7.05543L13.0697 6.85343Z" fill="white"/>
</svg>
