<svg width="18" height="18" viewBox="0 0 18 18" fill="none" xmlns="http://www.w3.org/2000/svg">
<circle cx="9" cy="9" r="9" fill="#FFC34E"/>
<g clip-path="url(#clip0_4_80)">
<path d="M9 4C6.25 4 4 6.25 4 9C4 11.75 6.25 14 9 14C11.75 14 14 11.75 14 9C14 6.25 11.75 4 9 4ZM9 5.25C11.075 5.25 12.75 6.925 12.75 9C12.75 11.075 11.075 12.75 9 12.75C6.925 12.75 5.25 11.075 5.25 9C5.25 6.925 6.925 5.25 9 5.25ZM8.375 6.5V9.01731C8.375 9.18034 8.44847 9.33469 8.575 9.4375V9.4375L9.2 10.0625V10.0625C9.43045 10.3201 9.83062 10.3319 10.075 10.0875V10.0875C10.3194 9.84312 10.3076 9.44295 10.05 9.2125V9.2125L9.91789 9.08039C9.73036 8.89286 9.625 8.6385 9.625 8.37329V7.15C9.625 6.80482 9.34518 6.525 9 6.525H8.4C8.38619 6.525 8.375 6.51381 8.375 6.5V6.5Z" fill="white"/>
</g>
<defs>
<clipPath id="clip0_4_80">
<rect x="4" y="4" width="10" height="10" rx="2" fill="white"/>
</clipPath>
</defs>
</svg>
