<svg width="18" height="18" viewBox="0 0 18 18" fill="none" xmlns="http://www.w3.org/2000/svg">
<circle cx="9" cy="9" r="9" fill="#C12945"/>
<g clip-path="url(#clip0_4_84)">
<path d="M12.4298 5.35876C12.0393 4.96823 11.4061 4.96823 11.0156 5.35876L9.77815 6.59619C9.38763 6.98672 8.75446 6.98672 8.36394 6.59619L7.1265 5.35876C6.73598 4.96823 6.10281 4.96823 5.71229 5.35876L5.35873 5.71231C4.96821 6.10283 4.96821 6.736 5.35873 7.12652L6.59617 8.36396C6.9867 8.75449 6.9867 9.38765 6.59617 9.77817L5.35873 11.0156C4.96821 11.4061 4.96821 12.0393 5.35873 12.4298L5.71229 12.7834C6.10281 13.1739 6.73598 13.1739 7.1265 12.7834L8.36394 11.5459C8.75446 11.1554 9.38763 11.1554 9.77815 11.5459L11.0156 12.7834C11.4061 13.1739 12.0393 13.1739 12.4298 12.7834L12.7834 12.4298C13.1739 12.0393 13.1739 11.4061 12.7834 11.0156L11.5459 9.77817C11.1554 9.38765 11.1554 8.75449 11.5459 8.36396L12.7834 7.12652C13.1739 6.736 13.1739 6.10283 12.7834 5.71231L12.4298 5.35876Z" fill="white"/>
</g>
<defs>
<clipPath id="clip0_4_84">
<rect x="9.07104" y="2" width="10" height="10" rx="2" transform="rotate(45 9.07104 2)" fill="white"/>
</clipPath>
</defs>
</svg>
