<svg width="18" height="18" viewBox="0 0 18 18" fill="none" xmlns="http://www.w3.org/2000/svg">
<circle cx="9" cy="9" r="9" fill="#00A3FF"/>
<g clip-path="url(#clip0_4_72)">
<path d="M12.3125 4.5625C12.0018 4.25184 11.4982 4.25184 11.1875 4.5625V4.5625C10.8768 4.87316 10.8768 5.37684 11.1875 5.6875L12.3125 6.8125C12.6232 7.12316 13.1268 7.12316 13.4375 6.8125V6.8125C13.7482 6.50184 13.7482 5.99816 13.4375 5.6875L12.3125 4.5625ZM10.625 7.375C10.0037 6.75368 8.99632 6.75368 8.375 7.375L5.46599 10.284C5.16762 10.5824 5 10.9871 5 11.409V11.409C5 12.2877 5.71231 13 6.59099 13V13C7.01295 13 7.41762 12.8324 7.71599 12.534L10.625 9.625C11.2463 9.00368 11.2463 7.99632 10.625 7.375V7.375Z" fill="white"/>
</g>
<defs>
<clipPath id="clip0_4_72">
<rect x="5" y="4" width="9" height="9" rx="2" fill="white"/>
</clipPath>
</defs>
</svg>
