<svg width="12" height="12" viewBox="0 0 12 12" fill="none" xmlns="http://www.w3.org/2000/svg">
<g clip-path="url(#clip0_3314_2591)">
<path d="M8.25 0C6.18 0 4.5 1.68 4.5 3.75C4.5 3.80755 4.5 3.86511 4.50062 3.92245C4.50424 4.25678 4.40299 4.59701 4.16657 4.83343L0.292893 8.70711C0.105357 8.89464 0 9.149 0 9.41421V11C0 11.5523 0.447715 12 1 12H3.5C4.05228 12 4.5 11.5523 4.5 11V10C4.5 9.44772 4.94772 9 5.5 9H6.5C7.05228 9 7.5 8.55228 7.5 8V7.52777C7.5 7.50999 7.50706 7.49294 7.51963 7.48037V7.48037C7.53548 7.46452 7.55818 7.45773 7.58025 7.46167C7.79498 7.5 8.02249 7.5 8.25 7.5C10.32 7.5 12 5.82 12 3.75C12 1.68 10.32 0 8.25 0ZM9 1.5C9.825 1.5 10.5 2.175 10.5 3C10.5 3.825 9.825 4.5 9 4.5C8.175 4.5 7.5 3.825 7.5 3C7.5 2.175 8.175 1.5 9 1.5Z" fill="#585858"/>
</g>
<defs>
<clipPath id="clip0_3314_2591">
<rect width="12" height="12" rx="2" fill="white"/>
</clipPath>
</defs>
</svg>
