<svg width="13" height="13" viewBox="0 0 13 13" fill="none" xmlns="http://www.w3.org/2000/svg">
<path d="M5.2575 0.0075C5.2527 0.0123022 5.24613 0.0149971 5.23933 0.0150107C2.34922 0.020786 0 2.37356 0 5.265C0 8.16 2.355 10.515 5.25 10.515C6.03824 10.515 6.81458 10.3484 7.49423 10.0258C7.63904 9.9571 7.81172 9.99256 7.935 10.095V10.095L9.435 11.595C9.57351 11.7509 9.7424 11.8767 9.93133 11.965C10.1202 12.0532 10.3252 12.1018 10.5336 12.108C10.742 12.1141 10.9495 12.0776 11.1433 12.0006C11.3371 11.9237 11.5131 11.8079 11.6605 11.6605C11.8079 11.5131 11.9237 11.3371 12.0006 11.1433C12.0776 10.9495 12.1141 10.742 12.108 10.5336C12.1018 10.3252 12.0532 10.1202 11.965 9.93133C11.8767 9.7424 11.7509 9.57351 11.595 9.435L10.095 7.935V7.935C9.97146 7.81142 9.92121 7.62217 9.99687 7.46466C10.3186 6.79488 10.515 6.03977 10.515 5.25C10.515 2.35856 8.16578 0.00578598 5.27567 1.06553e-05C5.26887 -2.91574e-06 5.2623 0.00269783 5.2575 0.0075V0.0075ZM5.2425 1.5225C5.2473 1.5177 5.25388 1.515 5.26067 1.51501C7.34068 1.52068 9 3.18356 9 5.265C9 6.255 8.64 7.17 8.01 7.845C7.995 7.86 7.98 7.875 7.965 7.89C7.89415 7.94887 7.82887 8.01415 7.77 8.085C7.11 8.685 6.21 9.03 5.235 9.03C3.15 9.03 1.485 7.365 1.485 5.28C1.485 3.19856 3.14432 1.53568 5.22433 1.53001C5.23112 1.53 5.2377 1.5273 5.2425 1.5225V1.5225Z" fill="white"/>
</svg>
