<svg width="64" height="64" viewBox="0 0 64 64" fill="none" xmlns="http://www.w3.org/2000/svg">
<path d="M32 -1.39876e-06C49.6731 -2.17128e-06 64 14.3269 64 32C64 49.6731 49.6731 64 32 64C14.3269 64 -6.26248e-07 49.6731 -1.39876e-06 32C-2.17128e-06 14.3269 14.3269 -6.26248e-07 32 -1.39876e-06ZM32 54.1196C44.2163 54.1196 54.1196 44.2163 54.1196 32C54.1196 19.7837 44.2163 9.88039 32 9.88039C19.7837 9.88039 9.88039 19.7837 9.88039 32C9.88039 44.2163 19.7837 54.1196 32 54.1196Z" fill="url(#paint0_angular_753_18131)"/>
<circle cx="59" cy="32" r="5" transform="rotate(-90 59 32)" fill="#654AB7"/>
<defs>
<radialGradient id="paint0_angular_753_18131" cx="0" cy="0" r="1" gradientUnits="userSpaceOnUse" gradientTransform="translate(32 32) scale(32)">
<stop stop-color="#6044B5"/>
<stop offset="1" stop-color="#6044B5" stop-opacity="0"/>
</radialGradient>
</defs>
</svg>
