<svg width="24" height="24" viewBox="0 0 24 24" fill="none" xmlns="http://www.w3.org/2000/svg">
<rect x="1" y="1" width="22" height="22" rx="1" fill="#C5C5C5"/>
<path d="M18.3463 7.53635C17.5665 6.80952 16.3057 6.82154 15.5505 7.5716L11.4799 11.4461C10.6714 12.2158 9.36419 12.2274 8.54048 11.4724L8.4135 11.3561L8.38368 11.3277C7.60961 10.5909 6.35461 10.5909 5.58055 11.3277C4.80648 12.0645 4.80648 13.259 5.58055 13.9958L5.61037 14.0242L8.59242 16.8626C9.34525 17.6103 10.5967 17.623 11.3661 16.8906L11.3956 16.8626L18.3537 10.2397L18.3687 10.2254C19.1485 9.48315 19.1343 8.27076 18.3463 7.53635Z" fill="white"/>
<rect x="1" y="1" width="22" height="22" rx="1" stroke="#C5C5C5" stroke-width="2"/>
</svg>
