<svg width="24" height="24" viewBox="0 0 24 24" fill="none" xmlns="http://www.w3.org/2000/svg">
<rect x="1" y="1" width="22" height="22" rx="3" fill="#4C3A80" stroke="#4C3A80" stroke-width="2"/>
<path d="M17.9233 7.64483C17.1801 6.91704 15.9785 6.92908 15.2588 7.68013V7.68013L11.3792 11.5597C10.6086 12.3304 9.36276 12.3421 8.57771 11.5861L8.45669 11.4696L8.42827 11.4412C7.69053 10.7034 6.49442 10.7034 5.75669 11.4412V11.4412C5.01895 12.1789 5.01895 13.375 5.75669 14.1128L5.78511 14.1412L8.62721 16.9833V16.9833C9.34471 17.732 10.5374 17.7447 11.2707 17.0114L11.2988 16.9833L17.9304 10.3517L17.9447 10.3374C18.6879 9.59419 18.6744 8.3802 17.9233 7.64483V7.64483Z" fill="white"/>
</svg>
