<svg width="24" height="24" viewBox="0 0 24 24" fill="none" xmlns="http://www.w3.org/2000/svg">
<rect x="1" y="1" width="22" height="22" rx="3" fill="#AAAAAA" stroke="#C5C5C5" stroke-width="2"/>
<path d="M17.2884 7.0231C16.8908 6.63377 16.2518 6.64393 15.8668 7.04571L15.2588 7.68013L10.6853 12.2536C10.3 12.6389 9.67709 12.6448 9.28457 12.2668L8.45669 11.4696L7.79958 10.8125C7.40906 10.422 6.77589 10.422 6.38537 10.8125L5.12801 12.0699C4.73748 12.4604 4.73748 13.0936 5.12801 13.4841L5.78511 14.1412L8.62721 16.9833L9.2278 17.61C9.61569 18.0147 10.2605 18.0216 10.6569 17.6252L11.2988 16.9833L17.9304 10.3517L18.58 9.70209C18.9734 9.30865 18.9701 8.66974 18.5725 8.28047L17.2884 7.0231Z" fill="white"/>
</svg>
